<svg width="189" height="62" viewBox="0 0 189 62" fill="none" xmlns="http://www.w3.org/2000/svg">
<rect x="0.143066" y="0.592896" width="188.5" height="5.37857" fill="#EC1D24"/>
<path d="M23.7241 25.0183V34.9714H22.4595L18.4741 27.2947V34.9714H17.2163V25.0183H18.4741L22.48 32.7156V25.0183H23.7241ZM29.2476 25.9001L26.5269 34.9714H25.2417L28.4478 25.0183H29.2544L29.2476 25.9001ZM31.4487 34.9714L28.728 25.9001L28.7144 25.0183H29.5278L32.7339 34.9714H31.4487ZM31.4487 31.2869V32.3669H26.6499V31.2869H31.4487ZM34.4976 25.0183H35.7144L38.3188 33.1326L40.9165 25.0183H42.1333L38.7905 34.9714H37.8335L34.4976 25.0183ZM34.1011 25.0183H35.1675L35.3521 31.0886V34.9714H34.1011V25.0183ZM41.4565 25.0183H42.5229V34.9714H41.272V31.0886L41.4565 25.0183ZM50.0356 33.8982V34.9714H45.7153V33.8982H50.0356ZM45.9409 25.0183V34.9714H44.6831V25.0183H45.9409ZM49.4546 29.2976V30.3708H45.7153V29.2976H49.4546ZM49.9673 25.0183V26.0984H45.7153V25.0183H49.9673Z" fill="white"/>
<path fill-rule="evenodd" clip-rule="evenodd" d="M166.714 26.3732L163.714 24.5524L160.714 26.3732V30.2749L166.714 35.3905L172.714 30.2749V26.3732L169.714 24.5524L166.714 26.3732Z" fill="#EC1D24"/>
</svg>
